<svg width="32" height="32" viewBox="0 0 32 32" fill="none" xmlns="http://www.w3.org/2000/svg">
<g clip-path="url(#clip0_1128_7023)">
<path d="M31.24 8.38H29.72V16H31.24V8.38Z" fill="#1159CC"/>
<path d="M29.72 16H28.19V19.05H29.72V16Z" fill="#1159CC"/>
<path d="M29.72 5.33002H28.19V8.38002H29.72V5.33002Z" fill="#1159CC"/>
<path d="M28.19 19.05H26.67V20.57H28.19V19.05Z" fill="#1159CC"/>
<path d="M28.19 3.81H26.67V5.33H28.19V3.81Z" fill="#1159CC"/>
<path d="M26.67 20.57H25.14V22.1H26.67V20.57Z" fill="#1159CC"/>
<path d="M26.67 11.43H25.14V17.52H26.67V11.43Z" fill="#1159CC"/>
<path d="M25.14 22.1H23.62V23.62H25.14V22.1Z" fill="#1159CC"/>
<path d="M25.14 17.52H23.62V19.05H25.14V17.52Z" fill="#1159CC"/>
<path d="M26.67 2.29004H23.62V3.81004H26.67V2.29004Z" fill="#1159CC"/>
<path d="M23.62 23.62H22.1V25.14H23.62V23.62Z" fill="#1159CC"/>
<path d="M23.62 19.05H22.1V20.57H23.62V19.05Z" fill="#1159CC"/>
<path d="M25.14 9.91003H20.57V11.43H25.14V9.91003Z" fill="#1159CC"/>
<path d="M22.1 25.14H20.57V26.67H22.1V25.14Z" fill="#1159CC"/>
<path d="M20.57 26.67H19.05V28.19H20.57V26.67Z" fill="#1159CC"/>
<path d="M22.1 20.57H16V22.1H22.1V20.57Z" fill="#1159CC"/>
<path d="M20.57 11.43H19.05V12.95H20.57V11.43Z" fill="#1159CC"/>
<path d="M19.05 8.38H22.1V6.86H23.62V5.33H22.1V3.81H19.05V5.33H17.53V6.86H19.05V8.38Z" fill="#1159CC"/>
<path d="M19.05 28.19H17.53V29.71H19.05V28.19Z" fill="#1159CC"/>
<path d="M19.05 12.95H17.53V14.48H19.05V12.95Z" fill="#1159CC"/>
<path d="M17.53 14.48H16V16H17.53V14.48Z" fill="#1159CC"/>
<path d="M17.53 29.71H8.38V31.24H17.53V29.71Z" fill="#1159CC"/>
<path d="M16 16H14.48V20.57H16V16Z" fill="#1159CC"/>
<path d="M23.62 0.76001H12.95V2.29001H23.62V0.76001Z" fill="#1159CC"/>
<path d="M14.48 22.1H11.43V23.62H9.91V26.67H11.43V28.19H14.48V26.67H16V23.62H14.48V22.1Z" fill="#1159CC"/>
<path d="M12.95 2.29004H9.91V3.81004H12.95V2.29004Z" fill="#1159CC"/>
<path d="M9.91 12.95H12.95V11.43H14.48V8.37999H12.95V6.85999H9.91V8.37999H8.38V11.43H9.91V12.95Z" fill="#1159CC"/>
<path d="M5.34 20.57H8.38V19.05H9.91V16H8.38V14.48H5.34V16H3.81V19.05H5.34V20.57Z" fill="#1159CC"/>
<path d="M9.91002 3.81H6.86002V5.33H9.91002V3.81Z" fill="#1159CC"/>
<path d="M8.38002 28.19H6.86002V29.71H8.38002V28.19Z" fill="#1159CC"/>
<path d="M6.86 26.67H3.81V28.19H6.86V26.67Z" fill="#1159CC"/>
<path d="M6.86 5.33002H5.34V6.86002H6.86V5.33002Z" fill="#1159CC"/>
<path d="M5.34 6.85999H3.81V9.90999H5.34V6.85999Z" fill="#1159CC"/>
<path d="M3.81001 23.62H2.29001V26.67H3.81001V23.62Z" fill="#1159CC"/>
<path d="M3.81001 9.91003H2.29001V12.95H3.81001V9.91003Z" fill="#1159CC"/>
<path d="M2.29001 12.95H0.76001V23.62H2.29001V12.95Z" fill="#1159CC"/>
</g>
<defs>
<clipPath id="clip0_1128_7023">
<rect width="32" height="32" fill="white"/>
</clipPath>
</defs>
</svg>
