<svg width="32" height="32" viewBox="0 0 32 32" fill="none" xmlns="http://www.w3.org/2000/svg">
<g clip-path="url(#clip0_1128_7108)">
<path d="M32 1.52002H30.48V6.09002H32V1.52002Z" fill="#1159CC"/>
<path d="M30.48 6.09003H28.95V9.14003H30.48V6.09003Z" fill="#1159CC"/>
<path d="M30.48 0H27.43V1.52H30.48V0Z" fill="#1159CC"/>
<path d="M28.95 9.14001H27.43V12.19H28.95V9.14001Z" fill="#1159CC"/>
<path d="M27.43 12.19H25.9V15.24H27.43V12.19Z" fill="#1159CC"/>
<path d="M27.43 1.52002H25.9V4.57002H27.43V1.52002Z" fill="#1159CC"/>
<path d="M25.9 15.24H24.38V18.28H25.9V15.24Z" fill="#1159CC"/>
<path d="M25.9 4.57001H24.38V7.62001H25.9V4.57001Z" fill="#1159CC"/>
<path d="M24.38 22.86H22.86V27.43H24.38V22.86Z" fill="#1159CC"/>
<path d="M24.38 18.28H22.86V21.33H24.38V18.28Z" fill="#1159CC"/>
<path d="M24.38 7.62H22.86V10.67H24.38V7.62Z" fill="#1159CC"/>
<path d="M22.86 10.67H21.33V13.71H22.86V10.67Z" fill="#1159CC"/>
<path d="M21.33 25.9H19.81V27.43H18.29V25.9H16.76V24.38H15.24V25.9H13.71V22.86H12.19V27.43H10.67V28.95H9.14002V30.47H1.52002V32H18.29V30.47H21.33V28.95H22.86V27.43H21.33V25.9Z" fill="#1159CC"/>
<path d="M22.86 21.33H19.81V22.86H22.86V21.33Z" fill="#1159CC"/>
<path d="M21.33 13.71H19.81V16.76H21.33V13.71Z" fill="#1159CC"/>
<path d="M19.81 21.33V16.76H18.29V19.81H15.24V21.33H19.81Z" fill="#1159CC"/>
<path d="M15.24 21.33H13.71V22.86H15.24V21.33Z" fill="#1159CC"/>
<path d="M15.24 12.19H13.71V13.71H15.24V12.19Z" fill="#1159CC"/>
<path d="M13.71 13.71H12.19V15.24H13.71V13.71Z" fill="#1159CC"/>
<path d="M13.71 10.67H1.52002V12.19H13.71V10.67Z" fill="#1159CC"/>
<path d="M10.67 22.86H9.14001V24.38H10.67V22.86Z" fill="#1159CC"/>
<path d="M12.19 15.24H7.62V16.76H12.19V15.24Z" fill="#1159CC"/>
<path d="M9.14 24.38H7.62V25.9H9.14V24.38Z" fill="#1159CC"/>
<path d="M9.14001 21.33H4.57001V22.86H9.14001V21.33Z" fill="#1159CC"/>
<path d="M7.62001 16.76H4.57001V18.28H7.62001V16.76Z" fill="#1159CC"/>
<path d="M7.61999 25.9H3.04999V27.43H7.61999V25.9Z" fill="#1159CC"/>
<path d="M4.56999 18.28H3.04999V21.33H4.56999V18.28Z" fill="#1159CC"/>
<path d="M3.05002 27.43H1.52002V28.95H3.05002V27.43Z" fill="#1159CC"/>
<path d="M1.52 28.95H0V30.47H1.52V28.95Z" fill="#1159CC"/>
</g>
<defs>
<clipPath id="clip0_1128_7108">
<rect width="32" height="32" fill="white"/>
</clipPath>
</defs>
</svg>
