<svg width="32" height="32" viewBox="0 0 32 32" fill="none" xmlns="http://www.w3.org/2000/svg">
<g clip-path="url(#clip0_1135_3381)">
<path d="M30.48 16.765H28.95V18.285H30.48V16.765Z" fill="#1159CC"/>
<path d="M27.43 15.245H19.81V13.715H18.29V15.245H13.72V13.715H12.19V15.245H4.57V16.765H16.76V18.285H18.29V28.955H6.1V21.335H15.24V19.815H3.05V18.285H1.52V19.815H0V21.335H4.57V30.475H27.43V21.335H32V18.285H30.48V19.815H27.43V16.765H28.95V13.715H27.43V15.245ZM25.91 28.955H19.81V16.765H25.91V28.955Z" fill="#1159CC"/>
<path d="M21.33 12.195H28.95V13.715H30.48V12.195H32V10.665H21.33V12.195Z" fill="#1159CC"/>
<path d="M21.33 12.195H19.81V13.715H21.33V12.195Z" fill="#1159CC"/>
<path d="M16.76 18.285H15.24V19.815H16.76V18.285Z" fill="#1159CC"/>
<path d="M13.72 9.14499H15.24V10.665H16.76V9.14499H18.29V7.62499H19.81V6.09499H16.76V1.52499H15.24V6.09499H12.19V7.62499H13.72V9.14499Z" fill="#1159CC"/>
<path d="M12.19 12.195H10.67V13.715H12.19V12.195Z" fill="#1159CC"/>
<path d="M4.56999 16.765H3.04999V18.285H4.56999V16.765Z" fill="#1159CC"/>
<path d="M4.56999 13.715H3.04999V15.245H4.56999V13.715Z" fill="#1159CC"/>
<path d="M10.67 12.195V10.665H0V12.195H1.52V13.715H3.05V12.195H10.67Z" fill="#1159CC"/>
</g>
<defs>
<clipPath id="clip0_1135_3381">
<rect width="32" height="32" fill="white"/>
</clipPath>
</defs>
</svg>
