<svg width="32" height="32" viewBox="0 0 32 32" fill="none" xmlns="http://www.w3.org/2000/svg">
<g clip-path="url(#clip0_1128_10338)">
<path d="M22.115 7.51001V10.55H19.065V15.13H22.115V18.17H26.685V15.13H29.735V10.55H26.685V7.51001H22.115Z" fill="#1159CC"/>
<path d="M26.685 28.84H25.165V30.36H26.685V28.84Z" fill="#1159CC"/>
<path d="M25.165 30.36H22.115V32H25.165V30.36Z" fill="#1159CC"/>
<path d="M22.115 27.32H20.595V28.84H19.065V30.36H22.115V27.32Z" fill="#1159CC"/>
<path d="M20.595 25.79H19.065V27.32H20.595V25.79Z" fill="#1159CC"/>
<path d="M19.065 27.32H17.545V28.84H19.065V27.32Z" fill="#1159CC"/>
<path d="M19.065 30.36H14.495V32H19.065V30.36Z" fill="#1159CC"/>
<path d="M16.025 21.22H14.495V27.32H16.025V21.22Z" fill="#1159CC"/>
<path d="M16.025 2.92999H14.495V9.02999H16.025V2.92999Z" fill="#1159CC"/>
<path d="M12.975 28.84H6.875V30.36H14.495V27.32H12.975V28.84Z" fill="#1159CC"/>
<path d="M14.495 1.40997H12.975V2.92997H14.495V1.40997Z" fill="#1159CC"/>
<path d="M14.495 19.7H11.445V21.22H14.495V19.7Z" fill="#1159CC"/>
<path d="M14.495 9.03003H11.445V10.55H14.495V9.03003Z" fill="#1159CC"/>
<path d="M11.445 2.92999H9.92502V7.50999H12.975V4.45999H11.445V2.92999Z" fill="#1159CC"/>
<path d="M9.92502 27.32H11.445V25.79H12.975V22.74H9.92502V27.32Z" fill="#1159CC"/>
<path d="M11.445 10.55H9.92502V19.7H11.445V10.55Z" fill="#1159CC"/>
<path d="M12.975 0H6.875V1.41H12.975V0Z" fill="#1159CC"/>
<path d="M6.87501 27.32H5.35501V28.84H6.87501V27.32Z" fill="#1159CC"/>
<path d="M6.87501 1.40997H5.35501V2.92997H6.87501V1.40997Z" fill="#1159CC"/>
<path d="M5.35501 24.27H3.82501V27.32H5.35501V24.27Z" fill="#1159CC"/>
<path d="M5.35501 2.92999H3.82501V5.97999H5.35501V2.92999Z" fill="#1159CC"/>
<path d="M3.82501 5.97998H2.26501V24.27H3.82501V5.97998Z" fill="#1159CC"/>
</g>
<defs>
<clipPath id="clip0_1128_10338">
<rect width="32" height="32" fill="white"/>
</clipPath>
</defs>
</svg>
