<svg width="32" height="32" viewBox="0 0 32 32" fill="none" xmlns="http://www.w3.org/2000/svg">
<g clip-path="url(#clip0_1128_6941)">
<path d="M28.95 24.38V3.05H7.62V0H3.05V3.05H0V7.62H3.05V28.95H24.38V32H28.95V28.95H32V24.38H28.95ZM30.48 27.43H27.43V30.48H25.91V27.43H4.57V6.1H1.53V4.57H4.57V1.52H6.1V4.57H27.43V25.91H30.48V27.43Z" fill="#1159CC"/>
<path d="M6.1 6.09998V25.91H25.91V6.09998H6.1ZM24.38 15.24H19.81V16.76H24.38V24.38H19.81V22.86H18.29V24.38H7.62V22.86H9.15V21.33H7.62V7.61998H24.38V15.24Z" fill="#1159CC"/>
<path d="M19.81 16.76H18.29V18.29H19.81V16.76Z" fill="#1159CC"/>
<path d="M18.29 18.29H16.76V19.81H18.29V18.29Z" fill="#1159CC"/>
<path d="M18.29 21.33H16.76V22.86H18.29V21.33Z" fill="#1159CC"/>
<path d="M16.76 19.81H15.24V21.33H16.76V19.81Z" fill="#1159CC"/>
<path d="M10.67 15.24H13.72V13.71H15.24V10.67H13.72V9.14001H10.67V10.67H9.15V13.71H10.67V15.24Z" fill="#1159CC"/>
<path d="M15.24 18.29H10.67V19.81H15.24V18.29Z" fill="#1159CC"/>
<path d="M10.67 19.81H9.15V21.33H10.67V19.81Z" fill="#1159CC"/>
</g>
<defs>
<clipPath id="clip0_1128_6941">
<rect width="32" height="32" fill="white"/>
</clipPath>
</defs>
</svg>
