<svg width="32" height="32" viewBox="0 0 32 32" fill="none" xmlns="http://www.w3.org/2000/svg">
<path d="M25.135 12.19V18.29H28.185V30.48H29.715V1.52H28.185V12.19H25.135ZM28.185 15.24H26.665V13.71H28.185V15.24Z" fill="#1159CC"/>
<path d="M28.185 30.48H3.805V32H28.185V30.48Z" fill="#1159CC"/>
<path d="M26.665 27.43H5.335V28.95H26.665V27.43Z" fill="#1159CC"/>
<path d="M20.565 18.29H19.045V19.81H20.565V18.29Z" fill="#1159CC"/>
<path d="M19.045 21.33H12.945V22.86H19.045V21.33Z" fill="#1159CC"/>
<path d="M12.945 18.29H11.425V19.81H12.945V18.29Z" fill="#1159CC"/>
<path d="M9.9 7.62H8.375V9.14H26.665V1.52H28.185V0H8.375V1.52H9.9V7.62ZM23.61 3.05H25.13V7.62H23.61V3.05ZM20.56 3.05H22.1V7.62H20.57L20.56 3.05ZM17.52 3.05H19.04V7.62H17.52V3.05ZM14.47 3.05H16V7.62H14.48L14.47 3.05ZM11.42 3.05H12.94V7.62H11.42V3.05Z" fill="#1159CC"/>
<path d="M8.375 1.52H6.855V3.05H8.375V1.52Z" fill="#1159CC"/>
<path d="M6.855 3.05H5.335V4.57H6.855V3.05Z" fill="#1159CC"/>
<path d="M5.335 4.57H3.805V6.1H5.335V4.57Z" fill="#1159CC"/>
<path d="M3.805 18.29H5.335V12.19H3.805V6.1H2.285V30.48H3.805V18.29Z" fill="#1159CC"/>
</svg>
