<svg width="32" height="32" viewBox="0 0 32 32" fill="none" xmlns="http://www.w3.org/2000/svg">
<g clip-path="url(#clip0_1128_9938)">
<path d="M32 16.765H30.48V19.805H32V16.765Z" fill="#1159CC"/>
<path d="M32 12.185H30.48V15.235H32V12.185Z" fill="#1159CC"/>
<path d="M32 7.61505H30.48V10.6651H32V7.61505Z" fill="#1159CC"/>
<path d="M30.48 19.8051H28.96V21.3351H30.48V19.8051Z" fill="#1159CC"/>
<path d="M30.48 15.235H28.96V16.765H30.48V15.235Z" fill="#1159CC"/>
<path d="M30.48 10.665H28.96V12.185H30.48V10.665Z" fill="#1159CC"/>
<path d="M30.48 6.09503H27.43V7.61503H30.48V6.09503Z" fill="#1159CC"/>
<path d="M28.96 12.185H27.43V13.715H28.96V12.185Z" fill="#1159CC"/>
<path d="M25.91 19.805H27.43V13.715H25.91V12.185H24.39V9.14502H22.86V10.665H18.29V12.185H16.77V13.715H15.24V12.185H13.72V10.665H9.15V9.14502H7.62V12.185H6.1V13.715H4.58V19.805H6.1V21.335H3.05V22.855H7.62V24.375H9.15V25.905H10.67V27.425H12.2V28.955H13.72V30.475H18.29V28.955H19.81V27.425H21.34V25.905H22.86V24.375H24.39V22.855H28.96V21.335H25.91V19.805ZM21.34 22.855H18.29V25.905H13.72V22.855H10.67V18.285H13.72V15.235H18.29V18.285H21.34V22.855Z" fill="#1159CC"/>
<path d="M27.43 7.61505H24.39V9.14505H27.43V7.61505Z" fill="#1159CC"/>
<path d="M24.39 3.04504H22.86V6.09504H24.39V3.04504Z" fill="#1159CC"/>
<path d="M22.86 6.09503H9.14999V7.61503H22.86V6.09503Z" fill="#1159CC"/>
<path d="M22.86 1.52502H9.14999V3.04502H22.86V1.52502Z" fill="#1159CC"/>
<path d="M9.14999 3.04504H7.62V6.09504H9.14999V3.04504Z" fill="#1159CC"/>
<path d="M7.62 7.61505H4.58V9.14505H7.62V7.61505Z" fill="#1159CC"/>
<path d="M4.58 12.185H3.05V13.715H4.58V12.185Z" fill="#1159CC"/>
<path d="M4.58 6.09503H1.53V7.61503H4.58V6.09503Z" fill="#1159CC"/>
<path d="M3.05 19.8051H1.53V21.3351H3.05V19.8051Z" fill="#1159CC"/>
<path d="M3.05 15.235H1.53V16.765H3.05V15.235Z" fill="#1159CC"/>
<path d="M3.05 10.665H1.53V12.185H3.05V10.665Z" fill="#1159CC"/>
<path d="M1.53 16.765H0V19.805H1.53V16.765Z" fill="#1159CC"/>
<path d="M1.53 12.185H0V15.235H1.53V12.185Z" fill="#1159CC"/>
<path d="M1.53 7.61505H0V10.6651H1.53V7.61505Z" fill="#1159CC"/>
</g>
<defs>
<clipPath id="clip0_1128_9938">
<rect width="32" height="32" fill="white"/>
</clipPath>
</defs>
</svg>
